<svg xmlns="http://www.w3.org/2000/svg" viewBox="0 0 175 175">
  <defs>
    <linearGradient id="whatsapp-gradient" x1="0%" y1="0%" x2="100%" y2="100%">
      <stop offset="0%" style="stop-color:#25D366;stop-opacity:1" />
      <stop offset="100%" style="stop-color:#128C7E;stop-opacity:1" />
    </linearGradient>
  </defs>
  <!-- Background circle -->
  <circle cx="87.5" cy="87.5" r="87.5" fill="url(#whatsapp-gradient)"/>
  <!-- WhatsApp speech bubble and phone icon -->
  <path d="M87.5 17.5C50.4 17.5 20 47.9 20 85c0 15.5 5.6 29.7 14.9 41L20 157.5l34.3-17.9c10.7 5.9 22.9 9.3 35.7 9.3 37.1 0 67.5-30.4 67.5-67.5S124.6 17.5 87.5 17.5zm0 124.3c-11.4 0-22.5-3-32.1-8.6l-2.3-1.2-23.6 12.4 12.7-23.1-1.2-2.3c-6.1-9.8-9.6-21.1-9.6-33.1 0-31.4 25.5-56.9 56.9-56.9s56.9 25.5 56.9 56.9-25.5 56.9-56.9 56.9z" fill="#fff"/>
  <path d="M133.8 98.5c-1.7-.9-10-4.9-11.6-5.5-.5-.2-1.2-.3-1.8 0-.7.3-2.8 2.8-3.4 3.5-.7.7-1.3.8-3 .2-1.7-.9-7.1-2.6-13.5-8.3-5-4.5-8.4-10-9.3-11.7-.9-1.7-.1-2.6.6-3.4.6-.7 1.5-1.8 2.2-2.7.7-.9.9-1.5 1.4-2.5.5-1 .2-1.8-.2-2.5-.5-.7-1.3-1.7-2-2.3-.6-.6-1.3-1.4-2-1.4-.6 0-1.2.1-1.8.1-1 0-1.9.5-2.6 1.2-2.1 2.5-3.5 5.8-3.5 9.1 0 3.4 1.1 6.8 3 9.9 4.7 7.9 13.6 16.7 23.5 21.9 4 2.4 7 2.9 9.4 3.1 2.3.2 3.8-.2 5.4-1.5 1.4-1.1 2.5-2.5 3.3-4 .5-1 .9-2.1.9-3 0-.9-.1-1.8-.7-2.7z" fill="#fff"/>
</svg>
